<svg xmlns="http://www.w3.org/2000/svg" xmlns:xlink="http://www.w3.org/1999/xlink" width="500" zoomAndPan="magnify" viewBox="0 0 375 374.999991" height="500" preserveAspectRatio="xMidYMid meet" version="1.0"><defs><g/><clipPath id="c7ef47b585"><rect x="0" width="242" y="0" height="360"/></clipPath><clipPath id="d3e3720c65"><path d="M 195 129.800781 L 298.152344 129.800781 L 298.152344 242.542969 L 195 242.542969 Z M 195 129.800781 " clip-rule="nonzero"/></clipPath><clipPath id="6de35dcec9"><path d="M 64.90625 248.554688 L 295 248.554688 L 295 298.992188 L 64.90625 298.992188 Z M 64.90625 248.554688 " clip-rule="nonzero"/></clipPath><clipPath id="f70f50b745"><rect x="0" width="149" y="0" height="355"/></clipPath></defs><g transform="matrix(1, 0, 0, 1, 61, 0)"><g clip-path="url(#c7ef47b585)"><g fill="#ffffff" fill-opacity="1"><g transform="translate(1.179079, 254.712437)"><g><path d="M 3.925781 -2.203125 L 68.222656 -152.957031 L 138.511719 -152.957031 L 136.800781 5.144531 L 86.265625 5.144531 L 85.722656 -14.21875 L 91 -14.367188 L 87.054688 -10.863281 L 47.726562 -55.171875 L 93.128906 -55.171875 L 93.128906 -49.890625 L 87.851562 -50.03125 L 89.316406 -105.90625 L 94.59375 -105.769531 L 89.355469 -105.113281 L 88.824219 -109.371094 L 94.0625 -110.027344 L 98.953125 -108.039062 L 75.398438 -50.066406 L 44.570312 -50.066406 L 44.570312 -55.347656 L 48.574219 -58.785156 L 69.335938 -34.613281 L 52.453125 5.144531 L 0.789062 5.144531 Z M 13.636719 1.9375 L 8.78125 -0.132812 L 8.78125 -5.414062 L 48.960938 -5.414062 L 48.960938 -0.132812 L 44.101562 -2.195312 L 58.335938 -35.722656 L 63.195312 -33.660156 L 59.191406 -30.21875 L 33.074219 -60.625 L 71.84375 -60.625 L 71.84375 -55.347656 L 66.953125 -57.332031 L 96.789062 -130.765625 L 99.882812 -106.027344 L 98.273438 -44.613281 L 59.46875 -44.613281 L 59.46875 -49.890625 L 63.417969 -53.394531 L 96.226562 -16.4375 L 96.679688 -0.28125 L 91.402344 -0.132812 L 91.402344 -5.414062 L 131.578125 -5.414062 L 131.578125 -0.132812 L 126.300781 -0.191406 L 127.898438 -147.734375 L 133.175781 -147.679688 L 133.175781 -142.398438 L 71.710938 -142.398438 L 71.710938 -147.679688 L 76.566406 -145.605469 Z M 13.636719 1.9375 "/></g></g></g><g fill="#ffffff" fill-opacity="1"><g transform="translate(148.313179, 254.712437)"><g/></g></g><g fill="#000000" fill-opacity="1"><g transform="translate(1.179079, 254.712437)"><g><path d="M 8.78125 -0.140625 L 71.703125 -147.671875 L 133.171875 -147.671875 L 131.578125 -0.140625 L 91.40625 -0.140625 L 91 -14.375 L 59.46875 -49.890625 L 93.125 -49.890625 L 94.59375 -105.765625 L 94.0625 -110.03125 L 71.84375 -55.34375 L 44.5625 -55.34375 L 63.1875 -33.65625 L 48.953125 -0.140625 Z M 8.78125 -0.140625 "/></g></g></g><g fill="#000000" fill-opacity="1"><g transform="translate(148.313179, 254.712437)"><g/></g></g></g></g><g clip-path="url(#d3e3720c65)"><path fill="#3871c1" d="M 278.078125 190.347656 C 253.621094 242.433594 195.265625 241.515625 195.265625 241.515625 C 195.265625 241.515625 262.757812 252.078125 289.664062 195.898438 C 298.105469 178.269531 299.234375 160.355469 297.40625 148.1875 C 295.554688 135.835938 290.972656 129.382812 289.523438 130.035156 C 286.199219 131.523438 292.171875 160.339844 278.078125 190.347656 " fill-opacity="1" fill-rule="nonzero"/></g><path fill="#3871c1" d="M 259.226562 153.195312 C 260.996094 210.714844 208.550781 236.324219 208.550781 236.324219 C 208.550781 236.324219 273.511719 215.175781 272.066406 152.898438 C 271.613281 133.355469 264.503906 116.875 257.371094 106.855469 C 250.128906 96.679688 243.117188 93 242.121094 94.234375 C 239.832031 97.070312 258.199219 120.058594 259.226562 153.195312 " fill-opacity="1" fill-rule="nonzero"/><path fill="#3871c1" d="M 225.738281 130.496094 C 251.214844 182.085938 214.121094 227.160156 214.121094 227.160156 C 214.121094 227.160156 264.449219 180.953125 237.296875 124.894531 C 228.777344 107.300781 215.476562 95.253906 204.828125 89.097656 C 194.011719 82.847656 186.113281 82.410156 185.714844 83.949219 C 184.808594 87.472656 211.058594 100.765625 225.738281 130.496094 " fill-opacity="1" fill-rule="nonzero"/><g clip-path="url(#6de35dcec9)"><path fill="#656263" d="M 64.90625 259.503906 C 64.90625 259.503906 93.273438 236.03125 141.457031 258.308594 C 203.765625 287.117188 263.199219 295.078125 294.953125 262.863281 C 294.953125 262.863281 281.296875 295.949219 231.484375 298.789062 C 156.21875 303.078125 132.554688 238.53125 64.90625 259.503906 " fill-opacity="1" fill-rule="nonzero"/></g><path fill="#3871c1" d="M 66.777344 255.457031 C 66.777344 255.457031 90.203125 227.046875 141.726562 239.824219 C 208.355469 256.335938 268.21875 252.929688 293.320312 215.296875 C 293.320312 215.296875 286.15625 250.367188 237.78125 262.5625 C 164.675781 280.992188 129.25 222.082031 66.777344 255.457031 " fill-opacity="1" fill-rule="nonzero"/><g transform="matrix(1, 0, 0, 1, 128, 0)"><g clip-path="url(#f70f50b745)"><g fill="#ffffff" fill-opacity="1"><g transform="translate(2.196726, 250.480942)"><g><path d="M 3.890625 -2.183594 L 67.609375 -151.582031 L 137.269531 -151.582031 L 135.574219 5.101562 L 85.492188 5.101562 L 84.953125 -14.09375 L 90.183594 -14.238281 L 86.269531 -10.765625 L 47.296875 -54.675781 L 92.292969 -54.675781 L 92.292969 -49.441406 L 87.0625 -49.582031 L 88.515625 -104.957031 L 93.746094 -104.820312 L 88.550781 -104.171875 L 88.023438 -108.390625 L 93.21875 -109.039062 L 98.0625 -107.070312 L 74.71875 -49.617188 L 44.167969 -49.617188 L 44.167969 -54.847656 L 48.136719 -58.257812 L 68.714844 -34.300781 L 51.984375 5.101562 L 0.78125 5.101562 Z M 13.515625 1.921875 L 8.703125 -0.132812 L 8.703125 -5.363281 L 48.519531 -5.363281 L 48.519531 -0.132812 L 43.703125 -2.175781 L 57.8125 -35.402344 L 62.628906 -33.359375 L 58.660156 -29.949219 L 32.777344 -60.082031 L 71.199219 -60.082031 L 71.199219 -54.847656 L 66.351562 -56.820312 L 95.921875 -129.589844 L 98.984375 -105.078125 L 97.390625 -44.210938 L 58.9375 -44.210938 L 58.9375 -49.441406 L 62.847656 -52.917969 L 95.359375 -16.289062 L 95.808594 -0.277344 L 90.578125 -0.132812 L 90.578125 -5.363281 L 130.398438 -5.363281 L 130.398438 -0.132812 L 125.167969 -0.1875 L 126.75 -146.410156 L 131.980469 -146.351562 L 131.980469 -141.121094 L 71.066406 -141.121094 L 71.066406 -146.351562 L 75.878906 -144.300781 Z M 13.515625 1.921875 "/></g></g></g><g fill="#1791c8" fill-opacity="1"><g transform="translate(2.196726, 250.480942)"><g><path d="M 8.703125 -0.125 L 71.0625 -146.359375 L 131.984375 -146.359375 L 130.40625 -0.125 L 90.578125 -0.125 L 90.1875 -14.234375 L 58.9375 -49.4375 L 92.296875 -49.4375 L 93.75 -104.828125 L 93.21875 -109.046875 L 71.203125 -54.84375 L 44.171875 -54.84375 L 62.625 -33.359375 L 48.515625 -0.125 Z M 8.703125 -0.125 "/></g></g></g></g></g></svg>