<svg xmlns="http://www.w3.org/2000/svg" xmlns:xlink="http://www.w3.org/1999/xlink" width="500" zoomAndPan="magnify" viewBox="0 0 375 374.999991" height="500" preserveAspectRatio="xMidYMid meet" version="1.0"><defs><g/><clipPath id="b19e236e9b"><rect x="0" width="228" y="0" height="94"/></clipPath><clipPath id="a3886d8ff3"><path d="M 278.078125 131.546875 L 363.398438 131.546875 L 363.398438 224.777344 L 278.078125 224.777344 Z M 278.078125 131.546875 " clip-rule="nonzero"/></clipPath><clipPath id="babfa722d6"><path d="M 170.648438 229.75 L 361 229.75 L 361 271.464844 L 170.648438 271.464844 Z M 170.648438 229.75 " clip-rule="nonzero"/></clipPath><clipPath id="28791672f9"><rect x="0" width="135" y="0" height="90"/></clipPath><clipPath id="e157d83cdf"><rect x="0" width="238" y="0" height="21"/></clipPath></defs><g transform="matrix(1, 0, 0, 1, 10, 134)"><g clip-path="url(#b19e236e9b)"><g fill="#ffffff" fill-opacity="1"><g transform="translate(1.766998, 68.291941)"><g><path d="M 0.929688 -0.523438 L 16.191406 -36.300781 L 32.871094 -36.300781 L 32.464844 1.222656 L 20.472656 1.222656 L 20.34375 -3.375 L 21.597656 -3.410156 L 20.660156 -2.578125 L 11.328125 -13.09375 L 22.101562 -13.09375 L 22.101562 -11.839844 L 20.847656 -11.875 L 21.195312 -25.132812 L 22.449219 -25.101562 L 21.207031 -24.945312 L 21.078125 -25.957031 L 22.324219 -26.113281 L 23.484375 -25.640625 L 17.894531 -11.882812 L 10.578125 -11.882812 L 10.578125 -13.136719 L 11.527344 -13.953125 L 16.457031 -8.214844 L 12.449219 1.222656 L 0.1875 1.222656 Z M 3.238281 0.460938 L 2.082031 -0.03125 L 2.082031 -1.285156 L 11.621094 -1.285156 L 11.621094 -0.03125 L 10.464844 -0.519531 L 13.84375 -8.476562 L 14.996094 -7.988281 L 14.046875 -7.171875 L 7.851562 -14.386719 L 17.050781 -14.386719 L 17.050781 -13.136719 L 15.890625 -13.605469 L 22.96875 -31.035156 L 23.703125 -25.164062 L 23.324219 -10.585938 L 14.113281 -10.585938 L 14.113281 -11.839844 L 15.050781 -12.671875 L 22.835938 -3.902344 L 22.945312 -0.0664062 L 21.691406 -0.03125 L 21.691406 -1.285156 L 31.226562 -1.285156 L 31.226562 -0.03125 L 29.972656 -0.046875 L 30.351562 -35.0625 L 31.605469 -35.046875 L 31.605469 -33.792969 L 17.019531 -33.792969 L 17.019531 -35.046875 L 18.171875 -34.554688 Z M 3.238281 0.460938 "/></g></g></g><g fill="#ffffff" fill-opacity="1"><g transform="translate(36.687277, 68.291941)"><g><path d="M 17.167969 -34.78125 L 11.011719 -6.523438 L 9.789062 -6.789062 L 9.789062 -8.042969 L 15.976562 -8.042969 L 15.976562 -6.789062 L 14.753906 -7.054688 L 21.15625 -36.300781 L 32.53125 -36.300781 L 24.34375 1.222656 L 2.148438 1.222656 C 1.59375 1.222656 1.082031 1.042969 0.605469 0.6875 L 1.359375 -0.316406 L 0.734375 0.773438 C 0.507812 0.640625 0.304688 0.492188 0.121094 0.328125 C -0.0117188 0.207031 -0.136719 0.0898438 -0.253906 -0.03125 L -0.316406 -0.09375 L -0.371094 -0.164062 C -0.605469 -0.476562 -0.804688 -0.792969 -0.960938 -1.113281 C -1.222656 -1.632812 -1.296875 -2.128906 -1.191406 -2.609375 L 4.902344 -30.453125 L 6.125 -30.183594 L 5.132812 -29.417969 L -0.183594 -36.300781 L 17.5 -36.300781 Z M 14.722656 -35.3125 L 15.945312 -35.046875 L 15.945312 -33.792969 L 2.367188 -33.792969 L 2.367188 -35.046875 L 3.359375 -35.8125 L 7.472656 -30.488281 L 1.253906 -2.066406 C 1.269531 -2.136719 1.273438 -2.203125 1.261719 -2.261719 C 1.261719 -2.269531 1.261719 -2.277344 1.257812 -2.277344 C 1.261719 -2.265625 1.269531 -2.25 1.277344 -2.234375 C 1.371094 -2.046875 1.488281 -1.859375 1.632812 -1.667969 L 0.632812 -0.914062 L 1.515625 -1.800781 C 1.609375 -1.710938 1.703125 -1.617188 1.804688 -1.527344 C 1.855469 -1.484375 1.910156 -1.441406 1.980469 -1.402344 L 2.046875 -1.363281 L 2.109375 -1.316406 C 2.136719 -1.296875 2.15625 -1.285156 2.167969 -1.28125 C 2.164062 -1.285156 2.15625 -1.285156 2.148438 -1.285156 L 23.332031 -1.285156 L 23.332031 -0.03125 L 22.109375 -0.296875 L 29.75 -35.316406 L 30.972656 -35.046875 L 30.972656 -33.792969 L 22.164062 -33.792969 L 22.164062 -35.046875 L 23.390625 -34.78125 L 16.984375 -5.535156 L 8.234375 -5.535156 Z M 14.722656 -35.3125 "/></g></g></g><g fill="#ffffff" fill-opacity="1"><g transform="translate(68.797524, 68.291941)"><g><path d="M 20.152344 -19.402344 L 22.171875 -28.683594 L 23.398438 -28.417969 L 23.398438 -27.164062 L 16.511719 -27.164062 L 16.511719 -28.417969 L 17.738281 -28.148438 L 15.292969 -17.019531 L 12.417969 -15.066406 L 11.714844 -16.101562 L 12.921875 -16.433594 L 14.171875 -11.875 L 11.332031 1.09375 L -0.0429688 1.09375 L 6.890625 -30.546875 L 8.113281 -30.28125 L 7.121094 -29.515625 L 1.816406 -36.425781 L 31.101562 -36.425781 C 31.554688 -36.425781 32.023438 -36.289062 32.511719 -36.007812 L 32.53125 -36 L 32.546875 -35.988281 C 32.957031 -35.738281 33.300781 -35.421875 33.585938 -35.042969 L 32.585938 -34.289062 L 33.472656 -35.175781 C 33.804688 -34.839844 34.058594 -34.453125 34.226562 -34.011719 C 34.457031 -33.441406 34.511719 -32.945312 34.390625 -32.523438 L 33.183594 -32.867188 L 34.410156 -32.601562 L 30.367188 -14.027344 L 25.167969 -11.355469 L 24.597656 -12.472656 L 25.816406 -12.761719 L 28.921875 0.320312 L 18.019531 5.472656 L 12.390625 -16.007812 L 20.8125 -20.253906 L 21.375 -19.132812 Z M 22.472656 -18.285156 L 14.425781 -14.226562 L 13.859375 -15.34375 L 15.074219 -15.664062 L 20.0625 3.375 L 18.851562 3.695312 L 18.316406 2.5625 L 26.933594 -1.511719 L 27.46875 -0.378906 L 26.25 -0.0898438 L 23.152344 -13.136719 L 28.695312 -15.984375 L 29.269531 -14.871094 L 28.046875 -15.136719 L 31.96875 -33.175781 L 31.980469 -33.214844 C 31.949219 -33.101562 31.9375 -33.003906 31.953125 -32.929688 C 31.945312 -32.960938 31.925781 -33.023438 31.890625 -33.113281 C 31.847656 -33.222656 31.785156 -33.320312 31.699219 -33.402344 L 31.636719 -33.46875 L 31.582031 -33.539062 C 31.488281 -33.664062 31.371094 -33.769531 31.234375 -33.855469 L 31.890625 -34.921875 L 31.269531 -33.832031 C 31.199219 -33.875 31.136719 -33.902344 31.089844 -33.917969 C 31.082031 -33.921875 31.074219 -33.921875 31.070312 -33.921875 C 31.078125 -33.921875 31.089844 -33.921875 31.101562 -33.921875 L 4.355469 -33.921875 L 4.355469 -35.175781 L 5.351562 -35.9375 L 9.464844 -30.582031 L 2.738281 0.109375 L 1.515625 -0.15625 L 1.515625 -1.410156 L 10.324219 -1.410156 L 10.324219 -0.15625 L 9.101562 -0.425781 L 11.660156 -12.109375 L 12.882812 -11.839844 L 11.675781 -11.507812 L 10.269531 -16.636719 L 13.472656 -18.8125 L 14.175781 -17.777344 L 12.953125 -18.046875 L 15.503906 -29.671875 L 24.953125 -29.671875 L 22.601562 -18.867188 Z M 22.472656 -18.285156 "/></g></g></g><g fill="#ffffff" fill-opacity="1"><g transform="translate(102.960039, 68.291941)"><g><path d="M 8.242188 -36.300781 L 29.425781 -36.300781 C 29.992188 -36.300781 30.503906 -36.136719 30.953125 -35.808594 L 30.214844 -34.796875 L 30.839844 -35.882812 C 31.066406 -35.753906 31.269531 -35.605469 31.453125 -35.4375 C 31.585938 -35.320312 31.710938 -35.199219 31.828125 -35.082031 L 31.890625 -35.019531 L 31.945312 -34.945312 C 32.179688 -34.632812 32.378906 -34.316406 32.539062 -33.996094 L 32.546875 -33.980469 L 32.554688 -33.960938 C 32.796875 -33.433594 32.871094 -32.9375 32.765625 -32.472656 L 25.382812 1.222656 L 3.1875 1.222656 C 2.675781 1.222656 2.175781 1.050781 1.6875 0.714844 C 1.359375 0.496094 1.058594 0.234375 0.777344 -0.0742188 L 0.757812 -0.0976562 L 0.734375 -0.121094 C 0.496094 -0.414062 0.28125 -0.734375 0.0976562 -1.078125 L 0.046875 -1.175781 L 0.0117188 -1.277344 C -0.0390625 -1.425781 -0.0820312 -1.570312 -0.121094 -1.707031 C -0.234375 -2.128906 -0.199219 -2.527344 -0.015625 -2.898438 L 1.105469 -2.335938 L -0.117188 -2.605469 L 7.230469 -36.300781 Z M 8.242188 -33.792969 L 8.242188 -35.046875 L 9.464844 -34.78125 L 2.296875 -1.917969 L 2.226562 -1.777344 C 2.328125 -1.976562 2.351562 -2.175781 2.296875 -2.367188 C 2.324219 -2.273438 2.355469 -2.175781 2.386719 -2.070312 L 1.199219 -1.671875 L 2.304688 -2.265625 C 2.414062 -2.066406 2.535156 -1.878906 2.675781 -1.710938 L 1.703125 -0.914062 L 2.632812 -1.757812 C 2.773438 -1.601562 2.933594 -1.464844 3.113281 -1.347656 C 3.160156 -1.3125 3.199219 -1.292969 3.226562 -1.28125 C 3.222656 -1.285156 3.207031 -1.285156 3.1875 -1.285156 L 24.375 -1.285156 L 24.375 -0.03125 L 23.152344 -0.300781 L 30.320312 -33.015625 C 30.304688 -32.945312 30.300781 -32.882812 30.308594 -32.835938 C 30.308594 -32.847656 30.296875 -32.871094 30.277344 -32.914062 L 31.417969 -33.4375 L 30.296875 -32.878906 C 30.203125 -33.0625 30.085938 -33.25 29.941406 -33.445312 L 30.941406 -34.195312 L 30.058594 -33.308594 C 29.964844 -33.398438 29.871094 -33.492188 29.769531 -33.582031 C 29.71875 -33.628906 29.664062 -33.667969 29.59375 -33.707031 L 29.535156 -33.742188 L 29.480469 -33.78125 C 29.46875 -33.789062 29.449219 -33.792969 29.425781 -33.792969 Z M 10.828125 -8.042969 L 17.082031 -8.042969 L 17.082031 -6.789062 L 15.859375 -7.054688 L 20.5625 -28.558594 L 21.785156 -28.289062 L 21.785156 -27.039062 L 15.535156 -27.039062 L 15.535156 -28.289062 L 16.757812 -28.023438 L 12.054688 -6.519531 L 10.828125 -6.789062 Z M 9.273438 -5.535156 L 14.527344 -29.542969 L 23.34375 -29.542969 L 18.089844 -5.535156 Z M 9.273438 -5.535156 "/></g></g></g><g fill="#ffffff" fill-opacity="1"><g transform="translate(135.543879, 68.291941)"><g><path d="M 20.152344 -19.402344 L 22.171875 -28.683594 L 23.398438 -28.417969 L 23.398438 -27.164062 L 16.511719 -27.164062 L 16.511719 -28.417969 L 17.738281 -28.148438 L 15.292969 -17.019531 L 12.417969 -15.066406 L 11.714844 -16.101562 L 12.921875 -16.433594 L 14.171875 -11.875 L 11.332031 1.09375 L -0.0429688 1.09375 L 6.890625 -30.546875 L 8.113281 -30.28125 L 7.121094 -29.515625 L 1.816406 -36.425781 L 31.101562 -36.425781 C 31.554688 -36.425781 32.023438 -36.289062 32.511719 -36.007812 L 32.53125 -36 L 32.546875 -35.988281 C 32.957031 -35.738281 33.300781 -35.421875 33.585938 -35.042969 L 32.585938 -34.289062 L 33.472656 -35.175781 C 33.804688 -34.839844 34.058594 -34.453125 34.226562 -34.011719 C 34.457031 -33.441406 34.511719 -32.945312 34.390625 -32.523438 L 33.183594 -32.867188 L 34.410156 -32.601562 L 30.367188 -14.027344 L 25.167969 -11.355469 L 24.597656 -12.472656 L 25.816406 -12.761719 L 28.921875 0.320312 L 18.019531 5.472656 L 12.390625 -16.007812 L 20.8125 -20.253906 L 21.375 -19.132812 Z M 22.472656 -18.285156 L 14.425781 -14.226562 L 13.859375 -15.34375 L 15.074219 -15.664062 L 20.0625 3.375 L 18.851562 3.695312 L 18.316406 2.5625 L 26.933594 -1.511719 L 27.46875 -0.378906 L 26.25 -0.0898438 L 23.152344 -13.136719 L 28.695312 -15.984375 L 29.269531 -14.871094 L 28.046875 -15.136719 L 31.96875 -33.175781 L 31.980469 -33.214844 C 31.949219 -33.101562 31.9375 -33.003906 31.953125 -32.929688 C 31.945312 -32.960938 31.925781 -33.023438 31.890625 -33.113281 C 31.847656 -33.222656 31.785156 -33.320312 31.699219 -33.402344 L 31.636719 -33.46875 L 31.582031 -33.539062 C 31.488281 -33.664062 31.371094 -33.769531 31.234375 -33.855469 L 31.890625 -34.921875 L 31.269531 -33.832031 C 31.199219 -33.875 31.136719 -33.902344 31.089844 -33.917969 C 31.082031 -33.921875 31.074219 -33.921875 31.070312 -33.921875 C 31.078125 -33.921875 31.089844 -33.921875 31.101562 -33.921875 L 4.355469 -33.921875 L 4.355469 -35.175781 L 5.351562 -35.9375 L 9.464844 -30.582031 L 2.738281 0.109375 L 1.515625 -0.15625 L 1.515625 -1.410156 L 10.324219 -1.410156 L 10.324219 -0.15625 L 9.101562 -0.425781 L 11.660156 -12.109375 L 12.882812 -11.839844 L 11.675781 -11.507812 L 10.269531 -16.636719 L 13.472656 -18.8125 L 14.175781 -17.777344 L 12.953125 -18.046875 L 15.503906 -29.671875 L 24.953125 -29.671875 L 22.601562 -18.867188 Z M 22.472656 -18.285156 "/></g></g></g><g fill="#ffffff" fill-opacity="1"><g transform="translate(169.706394, 68.291941)"><g><path d="M 0.929688 -0.523438 L 16.191406 -36.300781 L 32.871094 -36.300781 L 32.464844 1.222656 L 20.472656 1.222656 L 20.34375 -3.375 L 21.597656 -3.410156 L 20.660156 -2.578125 L 11.328125 -13.09375 L 22.101562 -13.09375 L 22.101562 -11.839844 L 20.847656 -11.875 L 21.195312 -25.132812 L 22.449219 -25.101562 L 21.207031 -24.945312 L 21.078125 -25.957031 L 22.324219 -26.113281 L 23.484375 -25.640625 L 17.894531 -11.882812 L 10.578125 -11.882812 L 10.578125 -13.136719 L 11.527344 -13.953125 L 16.457031 -8.214844 L 12.449219 1.222656 L 0.1875 1.222656 Z M 3.238281 0.460938 L 2.082031 -0.03125 L 2.082031 -1.285156 L 11.621094 -1.285156 L 11.621094 -0.03125 L 10.464844 -0.519531 L 13.84375 -8.476562 L 14.996094 -7.988281 L 14.046875 -7.171875 L 7.851562 -14.386719 L 17.050781 -14.386719 L 17.050781 -13.136719 L 15.890625 -13.605469 L 22.96875 -31.035156 L 23.703125 -25.164062 L 23.324219 -10.585938 L 14.113281 -10.585938 L 14.113281 -11.839844 L 15.050781 -12.671875 L 22.835938 -3.902344 L 22.945312 -0.0664062 L 21.691406 -0.03125 L 21.691406 -1.285156 L 31.226562 -1.285156 L 31.226562 -0.03125 L 29.972656 -0.046875 L 30.351562 -35.0625 L 31.605469 -35.046875 L 31.605469 -33.792969 L 17.019531 -33.792969 L 17.019531 -35.046875 L 18.171875 -34.554688 Z M 3.238281 0.460938 "/></g></g></g><g fill="#ffffff" fill-opacity="1"><g transform="translate(204.634283, 68.291941)"><g/></g></g><g fill="#000000" fill-opacity="1"><g transform="translate(1.766998, 68.291941)"><g><path d="M 2.078125 -0.03125 L 17.015625 -35.046875 L 31.609375 -35.046875 L 31.234375 -0.03125 L 21.6875 -0.03125 L 21.59375 -3.40625 L 14.109375 -11.84375 L 22.109375 -11.84375 L 22.453125 -25.109375 L 22.328125 -26.109375 L 17.046875 -13.140625 L 10.578125 -13.140625 L 15 -7.984375 L 11.625 -0.03125 Z M 2.078125 -0.03125 "/></g></g></g><g fill="#000000" fill-opacity="1"><g transform="translate(36.687277, 68.291941)"><g><path d="M 15.953125 -35.046875 L 9.796875 -6.796875 L 15.984375 -6.796875 L 22.171875 -35.046875 L 30.984375 -35.046875 L 23.34375 -0.03125 L 2.140625 -0.03125 C 1.867188 -0.03125 1.609375 -0.125 1.359375 -0.3125 C 1.210938 -0.394531 1.082031 -0.488281 0.96875 -0.59375 C 0.851562 -0.707031 0.738281 -0.816406 0.625 -0.921875 C 0.4375 -1.171875 0.28125 -1.421875 0.15625 -1.671875 C 0.03125 -1.921875 -0.0078125 -2.144531 0.03125 -2.34375 L 6.125 -30.1875 L 2.375 -35.046875 Z M 15.953125 -35.046875 "/></g></g></g><g fill="#000000" fill-opacity="1"><g transform="translate(68.797524, 68.291941)"><g><path d="M 21.375 -19.140625 L 23.40625 -28.421875 L 16.515625 -28.421875 L 14.171875 -17.78125 L 11.71875 -16.109375 L 12.890625 -11.84375 L 10.328125 -0.15625 L 1.515625 -0.15625 L 8.109375 -30.28125 L 4.359375 -35.171875 L 31.109375 -35.171875 C 31.335938 -35.171875 31.597656 -35.085938 31.890625 -34.921875 C 32.160156 -34.753906 32.394531 -34.546875 32.59375 -34.296875 C 32.800781 -34.085938 32.957031 -33.84375 33.0625 -33.5625 C 33.1875 -33.25 33.226562 -33.019531 33.1875 -32.875 L 29.265625 -14.875 L 24.59375 -12.46875 L 27.46875 -0.375 L 18.859375 3.6875 L 13.859375 -15.34375 Z M 21.375 -19.140625 "/></g></g></g><g fill="#000000" fill-opacity="1"><g transform="translate(102.960039, 68.291941)"><g><path d="M 8.234375 -35.046875 L 29.4375 -35.046875 C 29.726562 -35.046875 29.988281 -34.960938 30.21875 -34.796875 C 30.363281 -34.710938 30.492188 -34.617188 30.609375 -34.515625 C 30.722656 -34.410156 30.835938 -34.304688 30.953125 -34.203125 C 31.140625 -33.941406 31.296875 -33.6875 31.421875 -33.4375 C 31.546875 -33.164062 31.585938 -32.9375 31.546875 -32.75 L 24.375 -0.03125 L 3.1875 -0.03125 C 2.9375 -0.03125 2.675781 -0.125 2.40625 -0.3125 C 2.144531 -0.476562 1.910156 -0.679688 1.703125 -0.921875 C 1.515625 -1.148438 1.347656 -1.398438 1.203125 -1.671875 C 1.160156 -1.796875 1.125 -1.914062 1.09375 -2.03125 C 1.0625 -2.144531 1.066406 -2.25 1.109375 -2.34375 Z M 10.828125 -6.796875 L 17.078125 -6.796875 L 21.78125 -28.296875 L 15.53125 -28.296875 Z M 10.828125 -6.796875 "/></g></g></g><g fill="#000000" fill-opacity="1"><g transform="translate(135.543879, 68.291941)"><g><path d="M 21.375 -19.140625 L 23.40625 -28.421875 L 16.515625 -28.421875 L 14.171875 -17.78125 L 11.71875 -16.109375 L 12.890625 -11.84375 L 10.328125 -0.15625 L 1.515625 -0.15625 L 8.109375 -30.28125 L 4.359375 -35.171875 L 31.109375 -35.171875 C 31.335938 -35.171875 31.597656 -35.085938 31.890625 -34.921875 C 32.160156 -34.753906 32.394531 -34.546875 32.59375 -34.296875 C 32.800781 -34.085938 32.957031 -33.84375 33.0625 -33.5625 C 33.1875 -33.25 33.226562 -33.019531 33.1875 -32.875 L 29.265625 -14.875 L 24.59375 -12.46875 L 27.46875 -0.375 L 18.859375 3.6875 L 13.859375 -15.34375 Z M 21.375 -19.140625 "/></g></g></g><g fill="#000000" fill-opacity="1"><g transform="translate(169.706394, 68.291941)"><g><path d="M 2.078125 -0.03125 L 17.015625 -35.046875 L 31.609375 -35.046875 L 31.234375 -0.03125 L 21.6875 -0.03125 L 21.59375 -3.40625 L 14.109375 -11.84375 L 22.109375 -11.84375 L 22.453125 -25.109375 L 22.328125 -26.109375 L 17.046875 -13.140625 L 10.578125 -13.140625 L 15 -7.984375 L 11.625 -0.03125 Z M 2.078125 -0.03125 "/></g></g></g><g fill="#000000" fill-opacity="1"><g transform="translate(204.634283, 68.291941)"><g/></g></g></g></g><g clip-path="url(#a3886d8ff3)"><path fill="#3871c1" d="M 346.808594 181.617188 C 326.597656 224.6875 278.371094 223.933594 278.371094 223.933594 C 278.371094 223.933594 334.144531 232.664062 356.382812 186.207031 C 363.359375 171.628906 364.289062 156.816406 362.78125 146.753906 C 361.25 136.535156 357.464844 131.203125 356.265625 131.738281 C 353.519531 132.96875 358.453125 156.800781 346.808594 181.617188 " fill-opacity="1" fill-rule="nonzero"/></g><path fill="#3871c1" d="M 331.226562 150.894531 C 332.695312 198.457031 289.355469 219.640625 289.355469 219.640625 C 289.355469 219.640625 343.035156 202.148438 341.839844 150.648438 C 341.464844 134.484375 335.59375 120.855469 329.699219 112.570312 C 323.710938 104.15625 317.917969 101.113281 317.09375 102.136719 C 315.203125 104.480469 330.382812 123.488281 331.226562 150.894531 " fill-opacity="1" fill-rule="nonzero"/><path fill="#3871c1" d="M 303.554688 132.121094 C 324.609375 174.785156 293.957031 212.058594 293.957031 212.058594 C 293.957031 212.058594 335.546875 173.847656 313.109375 127.488281 C 306.066406 112.941406 295.074219 102.976562 286.277344 97.886719 C 277.339844 92.71875 270.8125 92.355469 270.480469 93.628906 C 269.734375 96.542969 291.425781 107.535156 303.554688 132.121094 " fill-opacity="1" fill-rule="nonzero"/><g clip-path="url(#babfa722d6)"><path fill="#656263" d="M 170.648438 238.808594 C 170.648438 238.808594 194.089844 219.394531 233.90625 237.820312 C 285.398438 261.640625 334.511719 268.226562 360.753906 241.585938 C 360.753906 241.585938 349.46875 268.945312 308.304688 271.292969 C 246.109375 274.839844 226.554688 221.460938 170.648438 238.808594 " fill-opacity="1" fill-rule="nonzero"/></g><path fill="#3871c1" d="M 172.195312 235.460938 C 172.195312 235.460938 191.554688 211.96875 234.132812 222.53125 C 289.191406 236.1875 338.660156 233.371094 359.402344 202.25 C 359.402344 202.25 353.484375 231.25 313.507812 241.335938 C 253.097656 256.578125 223.820312 207.859375 172.195312 235.460938 " fill-opacity="1" fill-rule="nonzero"/><g transform="matrix(1, 0, 0, 1, 213, 137)"><g clip-path="url(#28791672f9)"><g fill="#ffffff" fill-opacity="1"><g transform="translate(1.825898, 64.764764)"><g><path d="M 0.890625 -0.5 L 15.484375 -34.71875 L 31.441406 -34.71875 L 31.054688 1.167969 L 19.582031 1.167969 L 19.457031 -3.226562 L 20.65625 -3.261719 L 19.761719 -2.464844 L 10.832031 -12.523438 L 21.140625 -12.523438 L 21.140625 -11.324219 L 19.941406 -11.355469 L 20.273438 -24.039062 L 21.472656 -24.007812 L 20.28125 -23.859375 L 20.160156 -24.828125 L 21.351562 -24.976562 L 22.460938 -24.523438 L 17.113281 -11.363281 L 10.117188 -11.363281 L 10.117188 -12.5625 L 11.027344 -13.34375 L 15.738281 -7.855469 L 11.90625 1.167969 L 0.179688 1.167969 Z M 3.09375 0.441406 L 1.992188 -0.03125 L 1.992188 -1.230469 L 11.113281 -1.230469 L 11.113281 -0.03125 L 10.011719 -0.5 L 13.242188 -8.109375 L 14.34375 -7.640625 L 13.4375 -6.859375 L 7.507812 -13.761719 L 16.308594 -13.761719 L 16.308594 -12.5625 L 15.199219 -13.015625 L 21.96875 -29.683594 L 22.671875 -24.066406 L 22.308594 -10.125 L 13.5 -10.125 L 13.5 -11.324219 L 14.394531 -12.121094 L 21.84375 -3.730469 L 21.945312 -0.0625 L 20.746094 -0.03125 L 20.746094 -1.230469 L 29.867188 -1.230469 L 29.867188 -0.03125 L 28.667969 -0.0429688 L 29.03125 -33.535156 L 30.230469 -33.523438 L 30.230469 -32.324219 L 16.277344 -32.324219 L 16.277344 -33.523438 L 17.378906 -33.050781 Z M 3.09375 0.441406 "/></g></g></g><g fill="#ffffff" fill-opacity="1"><g transform="translate(35.224809, 64.764764)"><g><path d="M 10.992188 8.476562 L 2.691406 3.300781 L 2.59375 3.203125 C 1.933594 2.539062 1.449219 1.816406 1.148438 1.035156 C 0.820312 0.136719 0.773438 -0.828125 1.003906 -1.863281 L 8.1875 -34.71875 L 29.476562 -34.71875 C 29.910156 -34.71875 30.359375 -34.585938 30.824219 -34.320312 L 30.839844 -34.3125 L 30.859375 -34.300781 C 31.25 -34.058594 31.582031 -33.757812 31.851562 -33.394531 L 30.894531 -32.675781 L 31.742188 -33.523438 C 32.015625 -33.25 32.25 -32.914062 32.449219 -32.519531 L 32.5 -32.417969 L 32.53125 -32.3125 C 32.570312 -32.175781 32.601562 -32.058594 32.632812 -31.964844 C 32.742188 -31.597656 32.726562 -31.230469 32.582031 -30.871094 L 31.46875 -31.316406 L 32.640625 -31.0625 L 25.609375 1.167969 L 17.789062 1.167969 L 11.503906 -3.449219 L 12.40625 -7.722656 L 17.636719 -7.722656 L 17.636719 -6.523438 L 16.464844 -6.777344 L 20.933594 -27.3125 L 22.105469 -27.058594 L 22.105469 -25.859375 L 16.125 -25.859375 L 16.125 -27.058594 L 17.296875 -26.804688 L 12.042969 -2.792969 L 10.871094 -3.050781 L 11.5625 -4.03125 L 18.078125 0.5625 L 11.945312 9.070312 Z M 12.261719 6.441406 L 11.625 7.460938 L 10.65625 6.757812 L 15.425781 0.144531 L 16.398438 0.84375 L 15.707031 1.824219 L 9.53125 -2.527344 L 15.164062 -28.257812 L 23.59375 -28.257812 L 18.601562 -5.324219 L 13.378906 -5.324219 L 13.378906 -6.523438 L 14.550781 -6.273438 L 14.007812 -3.707031 L 12.835938 -3.957031 L 13.542969 -4.921875 L 18.890625 -0.996094 L 18.179688 -0.03125 L 18.179688 -1.230469 L 24.644531 -1.230469 L 24.644531 -0.03125 L 23.472656 -0.285156 L 30.320312 -31.671875 L 30.355469 -31.761719 C 30.292969 -31.605469 30.285156 -31.441406 30.335938 -31.273438 C 30.304688 -31.378906 30.265625 -31.507812 30.226562 -31.652344 L 31.378906 -31.980469 L 30.304688 -31.445312 C 30.222656 -31.613281 30.136719 -31.738281 30.046875 -31.828125 L 29.988281 -31.890625 L 29.9375 -31.957031 C 29.84375 -32.078125 29.734375 -32.179688 29.601562 -32.257812 L 30.230469 -33.28125 L 29.636719 -32.238281 C 29.566406 -32.277344 29.511719 -32.304688 29.464844 -32.320312 C 29.457031 -32.324219 29.449219 -32.324219 29.445312 -32.324219 C 29.453125 -32.324219 29.464844 -32.324219 29.476562 -32.324219 L 9.152344 -32.324219 L 9.152344 -33.523438 L 10.320312 -33.265625 L 3.34375 -1.335938 C 3.214844 -0.761719 3.226562 -0.257812 3.382812 0.171875 C 3.5625 0.636719 3.867188 1.082031 4.289062 1.507812 L 3.441406 2.355469 L 4.078125 1.339844 Z M 12.261719 6.441406 "/></g></g></g><g fill="#ffffff" fill-opacity="1"><g transform="translate(68.774709, 64.764764)"><g><path d="M 16.421875 -33.265625 L 10.53125 -6.238281 L 9.363281 -6.492188 L 9.363281 -7.691406 L 15.28125 -7.691406 L 15.28125 -6.492188 L 14.109375 -6.75 L 20.234375 -34.71875 L 31.113281 -34.71875 L 23.28125 1.167969 L 2.054688 1.167969 C 1.527344 1.167969 1.035156 0.996094 0.578125 0.65625 L 1.296875 -0.300781 L 0.703125 0.738281 C 0.488281 0.613281 0.289062 0.472656 0.113281 0.3125 C -0.0117188 0.199219 -0.128906 0.0859375 -0.242188 -0.0273438 L -0.304688 -0.0898438 L -0.355469 -0.15625 C -0.578125 -0.457031 -0.769531 -0.757812 -0.921875 -1.066406 C -1.167969 -1.558594 -1.242188 -2.035156 -1.140625 -2.496094 L 4.6875 -29.128906 L 5.859375 -28.871094 L 4.910156 -28.136719 L -0.175781 -34.71875 L 16.738281 -34.71875 Z M 14.078125 -33.777344 L 15.25 -33.523438 L 15.25 -32.324219 L 2.265625 -32.324219 L 2.265625 -33.523438 L 3.214844 -34.253906 L 7.148438 -29.160156 L 1.199219 -1.976562 C 1.214844 -2.046875 1.21875 -2.109375 1.207031 -2.164062 C 1.207031 -2.171875 1.207031 -2.175781 1.203125 -2.175781 C 1.207031 -2.167969 1.214844 -2.152344 1.222656 -2.136719 C 1.3125 -1.960938 1.425781 -1.777344 1.5625 -1.59375 L 0.605469 -0.875 L 1.453125 -1.722656 C 1.539062 -1.636719 1.628906 -1.546875 1.726562 -1.460938 C 1.773438 -1.417969 1.828125 -1.378906 1.894531 -1.34375 L 1.957031 -1.304688 L 2.019531 -1.261719 C 2.042969 -1.242188 2.0625 -1.230469 2.074219 -1.226562 C 2.070312 -1.226562 2.0625 -1.230469 2.054688 -1.230469 L 22.316406 -1.230469 L 22.316406 -0.03125 L 21.148438 -0.285156 L 28.457031 -33.777344 L 29.625 -33.523438 L 29.625 -32.324219 L 21.199219 -32.324219 L 21.199219 -33.523438 L 22.371094 -33.265625 L 16.246094 -5.292969 L 7.875 -5.292969 Z M 14.078125 -33.777344 "/></g></g></g><g fill="#ffffff" fill-opacity="1"><g transform="translate(99.486005, 64.764764)"><g><path d="M 0.890625 -0.5 L 15.484375 -34.71875 L 31.441406 -34.71875 L 31.054688 1.167969 L 19.582031 1.167969 L 19.457031 -3.226562 L 20.65625 -3.261719 L 19.761719 -2.464844 L 10.832031 -12.523438 L 21.140625 -12.523438 L 21.140625 -11.324219 L 19.941406 -11.355469 L 20.273438 -24.039062 L 21.472656 -24.007812 L 20.28125 -23.859375 L 20.160156 -24.828125 L 21.351562 -24.976562 L 22.460938 -24.523438 L 17.113281 -11.363281 L 10.117188 -11.363281 L 10.117188 -12.5625 L 11.027344 -13.34375 L 15.738281 -7.855469 L 11.90625 1.167969 L 0.179688 1.167969 Z M 3.09375 0.441406 L 1.992188 -0.03125 L 1.992188 -1.230469 L 11.113281 -1.230469 L 11.113281 -0.03125 L 10.011719 -0.5 L 13.242188 -8.109375 L 14.34375 -7.640625 L 13.4375 -6.859375 L 7.507812 -13.761719 L 16.308594 -13.761719 L 16.308594 -12.5625 L 15.199219 -13.015625 L 21.96875 -29.683594 L 22.671875 -24.066406 L 22.308594 -10.125 L 13.5 -10.125 L 13.5 -11.324219 L 14.394531 -12.121094 L 21.84375 -3.730469 L 21.945312 -0.0625 L 20.746094 -0.03125 L 20.746094 -1.230469 L 29.867188 -1.230469 L 29.867188 -0.03125 L 28.667969 -0.0429688 L 29.03125 -33.535156 L 30.230469 -33.523438 L 30.230469 -32.324219 L 16.277344 -32.324219 L 16.277344 -33.523438 L 17.378906 -33.050781 Z M 3.09375 0.441406 "/></g></g></g><g fill="#1791c8" fill-opacity="1"><g transform="translate(1.825898, 64.764764)"><g><path d="M 2 -0.03125 L 16.28125 -33.515625 L 30.234375 -33.515625 L 29.859375 -0.03125 L 20.75 -0.03125 L 20.65625 -3.265625 L 13.5 -11.328125 L 21.140625 -11.328125 L 21.46875 -24 L 21.34375 -24.96875 L 16.3125 -12.5625 L 10.109375 -12.5625 L 14.34375 -7.640625 L 11.109375 -0.03125 Z M 2 -0.03125 "/></g></g></g><g fill="#1791c8" fill-opacity="1"><g transform="translate(35.224809, 64.764764)"><g><path d="M 11.625 7.453125 L 3.4375 2.359375 C 2.894531 1.816406 2.503906 1.234375 2.265625 0.609375 C 2.023438 -0.0546875 1.992188 -0.789062 2.171875 -1.59375 L 9.15625 -33.515625 L 29.46875 -33.515625 C 29.6875 -33.515625 29.941406 -33.4375 30.234375 -33.28125 C 30.492188 -33.113281 30.710938 -32.910156 30.890625 -32.671875 C 31.066406 -32.492188 31.226562 -32.265625 31.375 -31.984375 C 31.414062 -31.835938 31.453125 -31.710938 31.484375 -31.609375 C 31.515625 -31.515625 31.507812 -31.414062 31.46875 -31.3125 L 24.640625 -0.03125 L 18.171875 -0.03125 L 12.828125 -3.953125 L 13.375 -6.515625 L 17.640625 -6.515625 L 22.109375 -27.0625 L 16.125 -27.0625 L 10.875 -3.046875 L 16.390625 0.84375 Z M 11.625 7.453125 "/></g></g></g><g fill="#1791c8" fill-opacity="1"><g transform="translate(68.774709, 64.764764)"><g><path d="M 15.25 -33.515625 L 9.359375 -6.5 L 15.28125 -6.5 L 21.203125 -33.515625 L 29.625 -33.515625 L 22.3125 -0.03125 L 2.046875 -0.03125 C 1.785156 -0.03125 1.535156 -0.117188 1.296875 -0.296875 C 1.160156 -0.378906 1.035156 -0.46875 0.921875 -0.5625 C 0.804688 -0.664062 0.703125 -0.769531 0.609375 -0.875 C 0.421875 -1.113281 0.269531 -1.351562 0.15625 -1.59375 C 0.03125 -1.84375 -0.0078125 -2.054688 0.03125 -2.234375 L 5.859375 -28.875 L 2.265625 -33.515625 Z M 15.25 -33.515625 "/></g></g></g><g fill="#1791c8" fill-opacity="1"><g transform="translate(99.486005, 64.764764)"><g><path d="M 2 -0.03125 L 16.28125 -33.515625 L 30.234375 -33.515625 L 29.859375 -0.03125 L 20.75 -0.03125 L 20.65625 -3.265625 L 13.5 -11.328125 L 21.140625 -11.328125 L 21.46875 -24 L 21.34375 -24.96875 L 16.3125 -12.5625 L 10.109375 -12.5625 L 14.34375 -7.640625 L 11.109375 -0.03125 Z M 2 -0.03125 "/></g></g></g></g></g><g transform="matrix(1, 0, 0, 1, 57, 201)"><g clip-path="url(#e157d83cdf)"><g fill="#000000" fill-opacity="1"><g transform="translate(0.887003, 14.155248)"><g><path d="M 6.40625 -7.625 C 6.457031 -7.625 6.515625 -7.601562 6.578125 -7.5625 C 6.640625 -7.519531 6.691406 -7.472656 6.734375 -7.421875 C 6.773438 -7.378906 6.8125 -7.328125 6.84375 -7.265625 C 6.863281 -7.210938 6.867188 -7.164062 6.859375 -7.125 L 6.234375 -4.25 L 4.5625 -5.3125 L 4.75 -6.15625 L 3.390625 -6.15625 L 2.359375 -1.46875 L 3.71875 -1.46875 L 4.078125 -3.046875 L 5.75 -1.984375 L 5.3125 0 L 0.703125 0 C 0.648438 0 0.59375 -0.0195312 0.53125 -0.0625 C 0.5 -0.0820312 0.46875 -0.101562 0.4375 -0.125 C 0.414062 -0.144531 0.394531 -0.171875 0.375 -0.203125 C 0.320312 -0.242188 0.289062 -0.296875 0.28125 -0.359375 C 0.25 -0.410156 0.238281 -0.460938 0.25 -0.515625 L 1.796875 -7.625 Z M 6.40625 -7.625 "/></g></g></g><g fill="#000000" fill-opacity="1"><g transform="translate(7.92711, 14.155248)"><g><path d="M 3.46875 -7.625 L 2.125 -1.46875 L 3.46875 -1.46875 L 4.8125 -7.625 L 6.734375 -7.625 L 5.078125 0 L 0.46875 0 C 0.40625 0 0.347656 -0.0195312 0.296875 -0.0625 C 0.265625 -0.0820312 0.234375 -0.101562 0.203125 -0.125 C 0.179688 -0.15625 0.160156 -0.179688 0.140625 -0.203125 C 0.0976562 -0.253906 0.0625 -0.304688 0.03125 -0.359375 C 0.0078125 -0.421875 0 -0.472656 0 -0.515625 L 1.328125 -6.5625 L 0.515625 -7.625 Z M 3.46875 -7.625 "/></g></g></g><g fill="#000000" fill-opacity="1"><g transform="translate(14.953495, 14.155248)"><g><path d="M 0.625 -7.625 L 3.59375 -7.625 L 2.25 -1.46875 L 3.03125 -1.46875 L 3.1875 -2.1875 L 5.09375 -2.1875 L 4.625 0 L 0 0 L 1.4375 -6.5625 Z M 0.625 -7.625 "/></g></g></g><g fill="#000000" fill-opacity="1"><g transform="translate(20.154666, 14.155248)"><g><path d="M 6.21875 -5.4375 L 4.3125 -5.4375 L 4.453125 -6.15625 L 3.96875 -6.15625 L 2.640625 0 L 0.71875 0 L 2.0625 -6.15625 L 1.15625 -6.15625 L 0 -7.625 L 6.6875 -7.625 Z M 6.21875 -5.4375 "/></g></g></g><g fill="#000000" fill-opacity="1"><g transform="translate(26.62526, 14.155248)"><g><path d="M 0.625 -7.625 L 3.578125 -7.625 L 1.921875 0 L 0 0 L 1.4375 -6.5625 Z M 0.625 -7.625 "/></g></g></g><g fill="#000000" fill-opacity="1"><g transform="translate(30.261963, 14.155248)"><g><path d="M 6.765625 -7.625 L 3.515625 0 L 0.34375 0 L 0.421875 -7.625 L 2.5 -7.625 L 2.328125 -2.15625 L 2.34375 -1.953125 L 4.25 -6.59375 L 3.484375 -7.625 Z M 6.765625 -7.625 "/></g></g></g><g fill="#000000" fill-opacity="1"><g transform="translate(36.897238, 14.155248)"><g><path d="M -0.15625 0 L 3.09375 -7.625 L 6.265625 -7.625 L 6.1875 0 L 4.109375 0 L 4.09375 -0.734375 L 2.46875 -2.578125 L 4.203125 -2.578125 L 4.28125 -5.453125 L 4.25 -5.671875 L 3.109375 -2.859375 L 1.703125 -2.859375 L 2.65625 -1.734375 L 1.921875 0 Z M -0.15625 0 "/></g></g></g><g fill="#000000" fill-opacity="1"><g transform="translate(43.55996, 14.155248)"><g><path d="M 6.21875 -5.4375 L 4.3125 -5.4375 L 4.453125 -6.15625 L 3.96875 -6.15625 L 2.640625 0 L 0.71875 0 L 2.0625 -6.15625 L 1.15625 -6.15625 L 0 -7.625 L 6.6875 -7.625 Z M 6.21875 -5.4375 "/></g></g></g><g fill="#000000" fill-opacity="1"><g transform="translate(50.030555, 14.155248)"><g><path d="M 0.625 -7.625 L 3.578125 -7.625 L 1.921875 0 L 0 0 L 1.4375 -6.5625 Z M 0.625 -7.625 "/></g></g></g><g fill="#000000" fill-opacity="1"><g transform="translate(53.667258, 14.155248)"><g><path d="M 2.03125 -0.015625 L 0.109375 -0.015625 L 1.546875 -6.5625 L 0.734375 -7.625 L 3.609375 -7.625 L 4.5625 -4.5625 L 5.234375 -7.625 L 7.140625 -7.625 L 5.5 -0.09375 L 4.40625 0.71875 L 2.84375 -3.71875 Z M 2.03125 -0.015625 "/></g></g></g><g fill="#000000" fill-opacity="1"><g transform="translate(60.995557, 14.155248)"><g><path d="M 5.875 -3.375 L 5.140625 0 L 0.515625 0 C 0.460938 0 0.40625 -0.0195312 0.34375 -0.0625 C 0.289062 -0.101562 0.238281 -0.148438 0.1875 -0.203125 C 0.144531 -0.242188 0.113281 -0.296875 0.09375 -0.359375 C 0.0625 -0.410156 0.0507812 -0.460938 0.0625 -0.515625 L 1.625 -7.625 L 6.234375 -7.625 C 6.285156 -7.625 6.34375 -7.601562 6.40625 -7.5625 C 6.46875 -7.519531 6.519531 -7.472656 6.5625 -7.421875 C 6.601562 -7.378906 6.640625 -7.328125 6.671875 -7.265625 C 6.691406 -7.210938 6.695312 -7.164062 6.6875 -7.125 L 6.171875 -4.75 L 4.484375 -5.78125 L 4.5625 -6.15625 L 3.203125 -6.15625 L 2.890625 -4.6875 L 1.453125 -4.6875 L 2.609375 -3.4375 L 2.1875 -1.46875 L 3.546875 -1.46875 L 3.859375 -2.921875 L 3.5625 -2.921875 L 2.203125 -4.390625 L 4.8125 -4.390625 Z M 5.875 -3.375 "/></g></g></g><g fill="#000000" fill-opacity="1"><g transform="translate(67.925878, 14.155248)"><g/></g></g><g fill="#000000" fill-opacity="1"><g transform="translate(72.660453, 14.155248)"><g><path d="M 6.28125 -7.625 L 5.796875 -5.4375 L 3.90625 -5.4375 L 4.046875 -6.15625 L 3.265625 -6.15625 L 2.921875 -4.59375 L 5.375 -4.59375 L 3.390625 -3.125 L 2.609375 -3.125 L 2.25 -1.46875 L 3.03125 -1.46875 L 3.1875 -2.1875 L 5.09375 -2.1875 L 4.609375 0 L 0 0 L 1.4375 -6.5625 L 0.625 -7.625 Z M 6.28125 -7.625 "/></g></g></g><g fill="#000000" fill-opacity="1"><g transform="translate(79.048707, 14.155248)"><g><path d="M 2.625 -3.78125 L 5.171875 -7.625 L 7.265625 -7.625 L 4.921875 -3.9375 L 5.5625 -0.0625 L 3.6875 0.828125 Z M 1.1875 -7.578125 L 3.0625 -8.453125 L 3.609375 -5.875 L 2.1875 -3.9375 L 2.71875 -1.796875 L 1.5625 0 L -0.515625 0 L 1.828125 -3.703125 Z M 1.1875 -7.578125 "/></g></g></g><g fill="#000000" fill-opacity="1"><g transform="translate(86.280942, 14.155248)"><g><path d="M 6.171875 -7.625 C 6.222656 -7.625 6.28125 -7.601562 6.34375 -7.5625 C 6.394531 -7.519531 6.445312 -7.472656 6.5 -7.421875 C 6.539062 -7.378906 6.570312 -7.328125 6.59375 -7.265625 C 6.625 -7.210938 6.632812 -7.164062 6.625 -7.125 L 6 -4.25 L 4.328125 -5.3125 L 4.5 -6.15625 L 3.140625 -6.15625 L 2.125 -1.46875 L 3.484375 -1.46875 L 3.828125 -3.046875 L 5.5 -1.984375 L 5.0625 0 L 0.453125 0 C 0.410156 0 0.351562 -0.0195312 0.28125 -0.0625 C 0.257812 -0.0820312 0.234375 -0.101562 0.203125 -0.125 C 0.179688 -0.144531 0.160156 -0.171875 0.140625 -0.203125 C 0.0859375 -0.242188 0.0507812 -0.296875 0.03125 -0.359375 C 0.0078125 -0.410156 0 -0.460938 0 -0.515625 L 1.5625 -7.625 Z M 6.171875 -7.625 "/></g></g></g><g fill="#000000" fill-opacity="1"><g transform="translate(92.984835, 14.155248)"><g><path d="M 6.28125 -7.625 L 5.796875 -5.4375 L 3.90625 -5.4375 L 4.046875 -6.15625 L 3.265625 -6.15625 L 2.921875 -4.59375 L 5.375 -4.59375 L 3.390625 -3.125 L 2.609375 -3.125 L 2.25 -1.46875 L 3.03125 -1.46875 L 3.1875 -2.1875 L 5.09375 -2.1875 L 4.609375 0 L 0 0 L 1.4375 -6.5625 L 0.625 -7.625 Z M 6.28125 -7.625 "/></g></g></g><g fill="#000000" fill-opacity="1"><g transform="translate(99.503453, 14.155248)"><g><path d="M 0.625 -7.625 L 3.59375 -7.625 L 2.25 -1.46875 L 3.03125 -1.46875 L 3.1875 -2.1875 L 5.09375 -2.1875 L 4.625 0 L 0 0 L 1.4375 -6.5625 Z M 0.625 -7.625 "/></g></g></g><g fill="#000000" fill-opacity="1"><g transform="translate(104.704624, 14.155248)"><g><path d="M 0.625 -7.625 L 3.59375 -7.625 L 2.25 -1.46875 L 3.03125 -1.46875 L 3.1875 -2.1875 L 5.09375 -2.1875 L 4.625 0 L 0 0 L 1.4375 -6.5625 Z M 0.625 -7.625 "/></g></g></g><g fill="#000000" fill-opacity="1"><g transform="translate(109.905795, 14.155248)"><g><path d="M 6.28125 -7.625 L 5.796875 -5.4375 L 3.90625 -5.4375 L 4.046875 -6.15625 L 3.265625 -6.15625 L 2.921875 -4.59375 L 5.375 -4.59375 L 3.390625 -3.125 L 2.609375 -3.125 L 2.25 -1.46875 L 3.03125 -1.46875 L 3.1875 -2.1875 L 5.09375 -2.1875 L 4.609375 0 L 0 0 L 1.4375 -6.5625 L 0.625 -7.625 Z M 6.28125 -7.625 "/></g></g></g><g fill="#000000" fill-opacity="1"><g transform="translate(116.424414, 14.155248)"><g><path d="M 2.03125 -0.015625 L 0.109375 -0.015625 L 1.546875 -6.5625 L 0.734375 -7.625 L 3.609375 -7.625 L 4.5625 -4.5625 L 5.234375 -7.625 L 7.140625 -7.625 L 5.5 -0.09375 L 4.40625 0.71875 L 2.84375 -3.71875 Z M 2.03125 -0.015625 "/></g></g></g><g fill="#000000" fill-opacity="1"><g transform="translate(123.752713, 14.155248)"><g><path d="M 6.171875 -7.625 C 6.222656 -7.625 6.28125 -7.601562 6.34375 -7.5625 C 6.394531 -7.519531 6.445312 -7.472656 6.5 -7.421875 C 6.539062 -7.378906 6.570312 -7.328125 6.59375 -7.265625 C 6.625 -7.210938 6.632812 -7.164062 6.625 -7.125 L 6 -4.25 L 4.328125 -5.3125 L 4.5 -6.15625 L 3.140625 -6.15625 L 2.125 -1.46875 L 3.484375 -1.46875 L 3.828125 -3.046875 L 5.5 -1.984375 L 5.0625 0 L 0.453125 0 C 0.410156 0 0.351562 -0.0195312 0.28125 -0.0625 C 0.257812 -0.0820312 0.234375 -0.101562 0.203125 -0.125 C 0.179688 -0.144531 0.160156 -0.171875 0.140625 -0.203125 C 0.0859375 -0.242188 0.0507812 -0.296875 0.03125 -0.359375 C 0.0078125 -0.410156 0 -0.460938 0 -0.515625 L 1.5625 -7.625 Z M 6.171875 -7.625 "/></g></g></g><g fill="#000000" fill-opacity="1"><g transform="translate(130.456605, 14.155248)"><g><path d="M 6.28125 -7.625 L 5.796875 -5.4375 L 3.90625 -5.4375 L 4.046875 -6.15625 L 3.265625 -6.15625 L 2.921875 -4.59375 L 5.375 -4.59375 L 3.390625 -3.125 L 2.609375 -3.125 L 2.25 -1.46875 L 3.03125 -1.46875 L 3.1875 -2.1875 L 5.09375 -2.1875 L 4.609375 0 L 0 0 L 1.4375 -6.5625 L 0.625 -7.625 Z M 6.28125 -7.625 "/></g></g></g><g fill="#000000" fill-opacity="1"><g transform="translate(136.975224, 14.155248)"><g/></g></g><g fill="#000000" fill-opacity="1"><g transform="translate(141.709799, 14.155248)"><g><path d="M 3.515625 0.734375 L 3.8125 -2.453125 L 2.25 -0.015625 L 0.296875 0.640625 L 1.234375 -6.5625 L 0.65625 -7.625 L 3.34375 -7.625 L 2.765625 -3.703125 L 2.828125 -3.78125 L 4.25 -6.265625 L 5.390625 -5.21875 L 5.40625 -3.859375 L 6.640625 -6.5625 L 5.828125 -7.625 L 9.09375 -7.625 L 5.671875 -0.078125 Z M 3.515625 0.734375 "/></g></g></g><g fill="#000000" fill-opacity="1"><g transform="translate(150.829011, 14.155248)"><g><path d="M 0.625 -7.625 L 3.578125 -7.625 L 1.921875 0 L 0 0 L 1.4375 -6.5625 Z M 0.625 -7.625 "/></g></g></g><g fill="#000000" fill-opacity="1"><g transform="translate(154.465714, 14.155248)"><g><path d="M 6.21875 -5.4375 L 4.3125 -5.4375 L 4.453125 -6.15625 L 3.96875 -6.15625 L 2.640625 0 L 0.71875 0 L 2.0625 -6.15625 L 1.15625 -6.15625 L 0 -7.625 L 6.6875 -7.625 Z M 6.21875 -5.4375 "/></g></g></g><g fill="#000000" fill-opacity="1"><g transform="translate(160.936308, 14.155248)"><g><path d="M 2.0625 -4.546875 L 4.234375 -4.546875 L 4.671875 -6.5625 L 3.859375 -7.625 L 6.796875 -7.625 L 5.140625 0 L 3.234375 0 L 3.90625 -3.078125 L 3.40625 -3.078125 Z M -0.21875 0 L 1.21875 -6.5625 L 0.390625 -7.625 L 3.359375 -7.625 L 2.75 -4.84375 L 1.296875 -4.84375 L 2.484375 -3.578125 L 1.703125 0 Z M -0.21875 0 "/></g></g></g><g fill="#000000" fill-opacity="1"><g transform="translate(167.873499, 14.155248)"><g/></g></g><g fill="#000000" fill-opacity="1"><g transform="translate(172.608074, 14.155248)"><g><path d="M 0.625 -7.625 L 3.578125 -7.625 L 1.921875 0 L 0 0 L 1.4375 -6.5625 Z M 0.625 -7.625 "/></g></g></g><g fill="#000000" fill-opacity="1"><g transform="translate(176.320263, 14.155248)"><g><path d="M 2.03125 -0.015625 L 0.109375 -0.015625 L 1.546875 -6.5625 L 0.734375 -7.625 L 3.609375 -7.625 L 4.5625 -4.5625 L 5.234375 -7.625 L 7.140625 -7.625 L 5.5 -0.09375 L 4.40625 0.71875 L 2.84375 -3.71875 Z M 2.03125 -0.015625 "/></g></g></g><g fill="#000000" fill-opacity="1"><g transform="translate(183.648563, 14.155248)"><g><path d="M 2.03125 -0.015625 L 0.109375 -0.015625 L 1.546875 -6.5625 L 0.734375 -7.625 L 3.609375 -7.625 L 4.5625 -4.5625 L 5.234375 -7.625 L 7.140625 -7.625 L 5.5 -0.09375 L 4.40625 0.71875 L 2.84375 -3.71875 Z M 2.03125 -0.015625 "/></g></g></g><g fill="#000000" fill-opacity="1"><g transform="translate(190.976862, 14.155248)"><g><path d="M 1.5625 -7.625 L 6.171875 -7.625 C 6.234375 -7.625 6.289062 -7.601562 6.34375 -7.5625 C 6.375 -7.550781 6.398438 -7.53125 6.421875 -7.5 C 6.453125 -7.476562 6.476562 -7.457031 6.5 -7.4375 C 6.539062 -7.382812 6.578125 -7.328125 6.609375 -7.265625 C 6.628906 -7.210938 6.640625 -7.164062 6.640625 -7.125 L 5.078125 0 L 0.46875 0 C 0.414062 0 0.359375 -0.0195312 0.296875 -0.0625 C 0.242188 -0.101562 0.191406 -0.148438 0.140625 -0.203125 C 0.0976562 -0.253906 0.0625 -0.304688 0.03125 -0.359375 C 0.0195312 -0.390625 0.0078125 -0.414062 0 -0.4375 C 0 -0.46875 0.00390625 -0.492188 0.015625 -0.515625 Z M 2.125 -1.46875 L 3.484375 -1.46875 L 4.515625 -6.15625 L 3.15625 -6.15625 Z M 2.125 -1.46875 "/></g></g></g><g fill="#000000" fill-opacity="1"><g transform="translate(197.955222, 14.155248)"><g><path d="M 6.765625 -7.625 L 3.515625 0 L 0.34375 0 L 0.421875 -7.625 L 2.5 -7.625 L 2.328125 -2.15625 L 2.34375 -1.953125 L 4.25 -6.59375 L 3.484375 -7.625 Z M 6.765625 -7.625 "/></g></g></g><g fill="#000000" fill-opacity="1"><g transform="translate(204.590498, 14.155248)"><g><path d="M -0.15625 0 L 3.09375 -7.625 L 6.265625 -7.625 L 6.1875 0 L 4.109375 0 L 4.09375 -0.734375 L 2.46875 -2.578125 L 4.203125 -2.578125 L 4.28125 -5.453125 L 4.25 -5.671875 L 3.109375 -2.859375 L 1.703125 -2.859375 L 2.65625 -1.734375 L 1.921875 0 Z M -0.15625 0 "/></g></g></g><g fill="#000000" fill-opacity="1"><g transform="translate(211.25322, 14.155248)"><g><path d="M 6.21875 -5.4375 L 4.3125 -5.4375 L 4.453125 -6.15625 L 3.96875 -6.15625 L 2.640625 0 L 0.71875 0 L 2.0625 -6.15625 L 1.15625 -6.15625 L 0 -7.625 L 6.6875 -7.625 Z M 6.21875 -5.4375 "/></g></g></g><g fill="#000000" fill-opacity="1"><g transform="translate(217.723814, 14.155248)"><g><path d="M 0.625 -7.625 L 3.578125 -7.625 L 1.921875 0 L 0 0 L 1.4375 -6.5625 Z M 0.625 -7.625 "/></g></g></g><g fill="#000000" fill-opacity="1"><g transform="translate(221.360517, 14.155248)"><g><path d="M 1.5625 -7.625 L 6.171875 -7.625 C 6.234375 -7.625 6.289062 -7.601562 6.34375 -7.5625 C 6.375 -7.550781 6.398438 -7.53125 6.421875 -7.5 C 6.453125 -7.476562 6.476562 -7.457031 6.5 -7.4375 C 6.539062 -7.382812 6.578125 -7.328125 6.609375 -7.265625 C 6.628906 -7.210938 6.640625 -7.164062 6.640625 -7.125 L 5.078125 0 L 0.46875 0 C 0.414062 0 0.359375 -0.0195312 0.296875 -0.0625 C 0.242188 -0.101562 0.191406 -0.148438 0.140625 -0.203125 C 0.0976562 -0.253906 0.0625 -0.304688 0.03125 -0.359375 C 0.0195312 -0.390625 0.0078125 -0.414062 0 -0.4375 C 0 -0.46875 0.00390625 -0.492188 0.015625 -0.515625 Z M 2.125 -1.46875 L 3.484375 -1.46875 L 4.515625 -6.15625 L 3.15625 -6.15625 Z M 2.125 -1.46875 "/></g></g></g><g fill="#000000" fill-opacity="1"><g transform="translate(228.338877, 14.155248)"><g><path d="M 2.03125 -0.015625 L 0.109375 -0.015625 L 1.546875 -6.5625 L 0.734375 -7.625 L 3.609375 -7.625 L 4.5625 -4.5625 L 5.234375 -7.625 L 7.140625 -7.625 L 5.5 -0.09375 L 4.40625 0.71875 L 2.84375 -3.71875 Z M 2.03125 -0.015625 "/></g></g></g></g></g></svg>